<?xml version="1.0" encoding="utf-8"?>
<svg version="1.1" id="Logotype" xmlns="http://www.w3.org/2000/svg" xmlns:xlink="http://www.w3.org/1999/xlink" x="0px" y="0px" width="50" height="50" viewBox="0 0 100 100" enable-background="new 0 0 100 100" xml:space="preserve">
	<g id="Logotype">
		<path fill="#E1F5FE" stroke="#0288D1" stroke-width="3" stroke-miterlimit="10" d="M50.1,97.3c-1.1,0-2.2-0.2-3-0.7L11.2,75.9 c-1.6-0.9-3-3.3-3-5.1V29.2c0-1.8,1.4-4.2,3-5.1L47.1,3.3c0.8-0.4,1.8-0.7,3-0.7s2.2,0.2,3,0.7L89,24.1c1.6,0.9,3,3.3,3,5.1v41.5 c0,1.8-1.4,4.2-3,5.1L53.1,96.7C52.3,97.1,51.2,97.3,50.1,97.3z" />
		<path id="Build" fill="none" stroke="#0288D1" stroke-width="3" stroke-linecap="round" stroke-linejoin="round" stroke-miterlimit="10" d="M70.4,40L50,52.5L29.6,40L50,27.5L70.4,40z M50,52.5L29.6,40 M70.4,50L50,62.5 M50,62.5L29.6,50 M70.4,60L50,72.5 M50,72.5L29.6,60" />
	</g>
	<g id="Logotype_Alt">
		<path fill="#0288D1" stroke="#0288D1" stroke-width="3" stroke-miterlimit="10" d="M50.1,97.3c-1.1,0-2.2-0.2-3-0.7L11.2,75.9 c-1.6-0.9-3-3.3-3-5.1V29.2c0-1.8,1.4-4.2,3-5.1L47.1,3.3c0.8-0.4,1.8-0.7,3-0.7s2.2,0.2,3,0.7L89,24.1c1.6,0.9,3,3.3,3,5.1v41.5 c0,1.8-1.4,4.2-3,5.1L53.1,96.7C52.3,97.1,51.2,97.3,50.1,97.3z" />
		<path id="Build_Alt" fill="none" stroke="#E1F5FE" stroke-width="3" stroke-linecap="round" stroke-linejoin="round" stroke-miterlimit="10" d="M70.4,40L50,52.5L29.6,40L50,27.5L70.4,40z M50,52.5L29.6,40 M70.4,50L50,62.5 M50,62.5L29.6,50 M70.4,60L50,72.5 M50,72.5L29.6,60" />
	</g>
</svg>
